<?xml version="1.0" encoding="iso-8859-1"?>
<!-- Generator: Adobe Illustrator 19.0.0, SVG Export Plug-In . SVG Version: 6.00 Build 0)  -->
<svg version="1.1" id="Layer_1" xmlns="http://www.w3.org/2000/svg" xmlns:xlink="http://www.w3.org/1999/xlink" x="0px" y="0px"
	 viewBox="0 0 512 512" style="enable-background:new 0 0 512 512;" xml:space="preserve">
<g>
	<g>
		<path d="M284.965,0h-55.862C141.644,0,69.459,70.136,69.459,157.559v37.285v74.653v130.578c0,5.151,5.21,10.314,10.361,10.314
			h28.022c-0.079,4.664,1.348,13.607,5.966,20.228c10.188,14.61,31.984,19.928,64.788,16.281c28.391-3.153,42.75,2.804,46.722,9.558
			c2.619,4.454,0.455,8.642-1.061,10.782c-3.721,5.224-12.793,10.339-26.205,7.666c-20.94-4.19-36.753-2.061-47.013,6.351
			c-10.479,8.594-10.781,20.136-10.781,21.424c0,5.06,4.041,9.064,9.096,9.192c0.077,0.004,0.155,0.002,0.231,0.002
			c4.955,0,9.073-4.013,9.324-8.986c0.009-0.179,0.264-4.35,4.204-7.415c5.643-4.386,16.764-5.206,31.278-2.309
			c22.111,4.431,37.781-4.941,45.064-15.175c6.836-9.605,7.578-21.528,1.944-31.11c-5.355-9.108-20.903-23.641-64.86-18.763
			c-24.729,2.741-41.557-0.314-47.396-8.617c-6.408-9.099,0.674-24.306,0.819-24.611c2.283-4.6,0.411-10.183-4.184-12.483
			c-4.627-2.314-10.215,0.06-12.515,4.665c-0.12,0.239-0.863,2.334-1.76,4.666H88.113V279.811h103.69
			c35.969,0,65.23-29.288,65.23-65.289c0,36.001,29.261,65.289,65.23,65.289h101.623v111.924h-23.839
			c-0.9-2.332-1.643-4.427-1.76-4.666c-2.304-4.604-7.902-6.732-12.515-4.419c-4.609,2.304-6.476,7.783-4.172,12.392
			c0.077,0.15,7.209,15.336,0.843,24.472c-5.816,8.334-22.635,11.378-47.432,8.631c-43.957-4.864-59.501,9.644-64.861,18.748
			c-5.634,9.582-4.891,21.497,1.944,31.102c7.282,10.238,22.944,19.616,45.064,15.171c14.505-2.915,25.631-2.088,31.278,2.307
			c3.921,3.051,4.19,7.2,4.199,7.2c0,5.151,4.176,9.326,9.327,9.326c5.151,0,9.327-4.176,9.327-9.327
			c0-1.289-0.301-12.838-10.78-21.432c-10.261-8.412-26.087-10.557-47.013-6.367c-13.398,2.669-22.484-2.477-26.205-7.697
			c-1.517-2.141-3.68-6.389-1.061-10.844c3.971-6.745,18.331-12.802,46.722-9.682c32.804,3.662,54.601-1.424,64.788-16.034
			c4.616-6.621,6.043-15.564,5.964-20.228h30.543c5.151,0,8.293-5.163,8.293-10.314V269.497v-74.653v-37.285
			C442.541,70.136,372.424,0,284.965,0z M237.346,213.535c0,25.713-19.861,47.622-45.542,47.622H88.113v-66.313
			c0-15.407,13.562-26.957,28.965-26.957h93.37c15.402,0,26.897,11.551,26.897,26.957V213.535z M423.887,261.157H322.264
			c-25.681,0-47.61-21.909-47.61-47.622v-18.691c0-15.407,13.562-26.957,28.965-26.957h93.37c15.402,0,26.897,11.551,26.897,26.957
			V261.157z M423.887,157.639c-6.995-5.869-16.413-8.406-26.897-8.406h-93.37c-25.687,0-46.585,20.904-46.585,46.599
			c0-25.695-20.899-46.599-46.585-46.599h-93.37c-10.485,0-19.638,2.537-28.965,8.406v-0.08
			c0-77.135,63.818-138.905,140.989-138.905h55.862c77.171,0,138.922,61.77,138.922,138.905V157.639z"/>
	</g>
</g>
<g>
	<g>
		<path d="M340.977,373.081H173.091c-5.151,0-9.327,4.176-9.327,9.327s4.176,9.327,9.327,9.327h167.887
			c5.151,0,9.327-4.176,9.327-9.327S346.128,373.081,340.977,373.081z"/>
	</g>
</g>
<g>
	<g>
		<path d="M340.977,345.1H173.091c-5.151,0-9.327,4.176-9.327,9.327c0,5.151,4.176,9.327,9.327,9.327h167.887
			c5.151,0,9.327-4.176,9.327-9.327C350.304,349.277,346.128,345.1,340.977,345.1z"/>
	</g>
</g>
<g>
	<g>
		<path d="M340.977,317.119H173.091c-5.151,0-9.327,4.176-9.327,9.327s4.176,9.327,9.327,9.327h167.887
			c5.151,0,9.327-4.176,9.327-9.327S346.128,317.119,340.977,317.119z"/>
	</g>
</g>
<g>
</g>
<g>
</g>
<g>
</g>
<g>
</g>
<g>
</g>
<g>
</g>
<g>
</g>
<g>
</g>
<g>
</g>
<g>
</g>
<g>
</g>
<g>
</g>
<g>
</g>
<g>
</g>
<g>
</g>
</svg>
